inDegrees=no
num_controls=7
num_derivatives=13
num_iterations=180
num_multipliers=7
num_parameters=0
num_slacks=7
num_states=26
objective=5.830484
objective_accelerations=0.479626
objective_balance=0.057994
objective_effort=0.424449
objective_height=4.750789
objective_ligament=0.117627
solver_duration=1999.936148
status=Solve_Succeeded
success=true
DataType=double
version=3
OpenSimVersion=4.4-2022-07-23-0e9fedc
endheader
time	/jointset/ground_pelvis/pelvis_tilt/value	/jointset/ground_pelvis/pelvis_tx/value	/jointset/ground_pelvis/pelvis_ty/value	/jointset/hip_l/hip_flexion_l/value	/jointset/hip_l/hip_adduction_l/value	/jointset/hip_l/hip_rotation_l/value	/jointset/back/lumbar_extension/value	/jointset/patellofemoral_l/patellar_flexion_l/value	/jointset/knee_l/knee_flexion_l/value	/jointset/knee_l/knee_adduction_l/value	/jointset/knee_l/knee_rotation_l/value	/jointset/ankle_l/ankle_angle_l/value	/jointset/subtalar_l/subtalar_angle_l/value	/jointset/ground_pelvis/pelvis_tilt/speed	/jointset/ground_pelvis/pelvis_tx/speed	/jointset/ground_pelvis/pelvis_ty/speed	/jointset/hip_l/hip_flexion_l/speed	/jointset/hip_l/hip_adduction_l/speed	/jointset/hip_l/hip_rotation_l/speed	/jointset/back/lumbar_extension/speed	/jointset/patellofemoral_l/patellar_flexion_l/speed	/jointset/knee_l/knee_flexion_l/speed	/jointset/knee_l/knee_adduction_l/speed	/jointset/knee_l/knee_rotation_l/speed	/jointset/ankle_l/ankle_angle_l/speed	/jointset/subtalar_l/subtalar_angle_l/speed	/forceset/tau_hip_flexion_l	/forceset/tau_hip_adduction_l	/forceset/tau_hip_rotation_l	/forceset/tau_knee_flexion_l	/forceset/tau_ankle_angle_l	/forceset/tau_subtalar_angle_l	/forceset/tau_lumbar_extension	lambda_cid13_p0	lambda_cid13_p1	lambda_cid13_p2	lambda_cid13_p3	lambda_cid13_p4	lambda_cid13_p5	lambda_cid14_p0	/jointset/ground_pelvis/pelvis_tilt/accel	/jointset/ground_pelvis/pelvis_tx/accel	/jointset/ground_pelvis/pelvis_ty/accel	/jointset/hip_l/hip_flexion_l/accel	/jointset/hip_l/hip_adduction_l/accel	/jointset/hip_l/hip_rotation_l/accel	/jointset/back/lumbar_extension/accel	/jointset/patellofemoral_l/patellar_flexion_l/accel	/jointset/knee_l/knee_flexion_l/accel	/jointset/knee_l/knee_adduction_l/accel	/jointset/knee_l/knee_rotation_l/accel	/jointset/ankle_l/ankle_angle_l/accel	/jointset/subtalar_l/subtalar_angle_l/accel	gamma_cid13_p0	gamma_cid13_p1	gamma_cid13_p2	gamma_cid13_p3	gamma_cid13_p4	gamma_cid13_p5	gamma_cid14_p0
0	-0.03682271843926598	0.05667758394590859	0.9203415901742256	0.3085811930696054	-0.2956404719632321	-0.3016072387655488	-0.3879500408040475	0.2499276582270891	0.249927658227084	-0.1745329251994329	-0.1745329251994329	-0.0008036543073733089	0.000437607595781891	0	0	0	0	0	0	0	0	0	0	0	0	0	0.07262587502366696	-0.06271189439295342	-0.02360071722444509	-0.2741886626141221	0.253375742972742	-0.01450535493759592	0.01135778883020029	37.83606714302672	-2.377179635443654	2.268596513604631	-16.46833315397333	-632.8353280460143	-79.45799704240177	-23.19700569211671	-0.1530568040419495	-1.30897662084072	-0.7318369906797851	7.232588264964221	-0.7298048779404996	3.15121691681138	-6.75053422046569	9.093202586033501	9.093202586031877	1.421209045989835	-0.06804526275248088	2.61081946908331	0.1078632859565401	-5.993640194264627e-10	1.567295624128152e-07	4.283223248970668e-08	-3.123401559576888e-10	7.939691251507616e-08	-1.025484600365657e-09	9.72140660231206e-09
0.01	-0.03682761377963754	0.05661356857440213	0.920305882454317	0.3089326361287248	-0.2956771377883254	-0.3014485008864373	-0.3882857376092538	0.2503733889744992	0.2503733889745368	-0.1744654742516312	-0.1745325448404996	-0.000675143002898173	0.0004421020202103171	-0.0009662323270382537	-0.01267418805840462	-0.00711076785602153	0.0698749160015768	-0.007308993996017436	0.03160461041503312	-0.06667201694742629	0.08875256633698404	0.08875256633698189	0.01339943460057243	7.753553398888964e-05	0.02568098700995336	0.000917895858802681	0.06841820538565516	-0.07384907341982852	-0.02307845749372362	-0.2717680032784559	0.2477663846469415	-0.001491413244539279	0.01570883445640197	36.42075512983616	-7.682741575259337	3.00184339167688	-17.30147814735751	-635.4122243879234	-90.30944429859211	-23.20208327893285	-0.0664876053315627	-1.227307022626222	-0.696064384846466	6.802883719314157	-0.7278547636258997	3.143640288429256	-6.555433819103845	8.707244241681906	8.707244241682474	1.285707708049655	0.04562226328958623	2.543550951965378	0.08657454106095742	-2.966005397206434e-08	1.448160302333791e-07	1.214419192538553e-07	2.645241359770612e-08	-2.850293472484308e-08	-6.137768718332452e-08	4.468699582183435e-10
0.02	-0.03684178767490301	0.05642667789745627	0.9201999935154909	0.3099704164381654	-0.2957861751740132	-0.3009780054662461	-0.3892741342613764	0.2516948375021024	0.2516948375021154	-0.1742667488116477	-0.1745313868717376	-0.0002904593013190028	0.0004563397642707377	-0.001855710986042758	-0.02457506108787849	-0.0140362437835188	0.1372674500655684	-0.0144743121197519	0.06235150821324602	-0.1305399693838621	0.1751435560400023	0.1751435560399996	0.02625475083947953	0.000153843140564284	0.05123447942047039	0.001948663926355451	0.0642105357473184	-0.08498625244677374	-0.0225561977630262	-0.2693473439430191	0.2421570263210324	0.0115225284484087	0.02005988008245833	35.07563547920908	-13.00054054698951	3.736981278335583	-18.30273213590354	-636.9809366430422	-101.0709938804859	-23.21702625909466	-0.1377060704359639	-1.154313615053945	-0.6947786049749414	6.736111877447144	-0.701069703484079	2.979674393446472	-6.189721318268035	8.620887259240369	8.620887259239062	1.312385373656513	-0.06829084823607273	2.585320549196699	0.1304377277066167	-5.872074392470221e-08	1.32902498053943e-07	2.000516060180039e-07	5.321716735136993e-08	-1.364027819647623e-07	-1.217298897662834e-07	-8.827666685875373e-09
0.03	-0.03686437895921871	0.05612392468323141	0.9200255416719273	0.3116706532370093	-0.2959659211912669	-0.300205206861426	-0.3908875112579001	0.253868502346908	0.2538685023469637	-0.1739419102285884	-0.1745302221251974	0.0003481494680368843	0.0004813497457147806	-0.002625059197753764	-0.03591872357148704	-0.02084359630080473	0.2024383641066594	-0.02143139700528458	0.0920597520228857	-0.1917171796629765	0.2591906409098988	0.259190640909878	0.03863305860900193	8.578050656721857e-05	0.07636730698572568	0.003057504897439894	0.05674363438323165	-0.07583057010161062	-0.02140690100374618	-0.2608999201433407	0.2325671951903134	0.008541799903674086	0.02615672248562467	31.81329298331639	-11.2668187751245	3.611378119171227	-16.41956502921164	-638.353710834137	-96.52742706624861	-23.24124427637792	-0.04093103856463205	-1.115853084018258	-0.6721619973721039	6.356341066660817	-0.6865543645395192	2.944106665148998	-6.018983345385375	8.2368051009328	8.236805100930704	1.188612086450834	0.02496687547696244	2.45926908295955	0.1016893230202539	-7.843873157541689e-08	1.10966752562198e-07	2.642117128941373e-07	6.838375814194102e-08	-2.126801139938016e-07	-1.741270696606123e-07	-1.719888958752788e-08
0.04	-0.03689354009401828	0.05570944274037075	0.9197833266187377	0.3140123511561471	-0.2962139433540742	-0.2991397843604377	-0.3931001128497341	0.2568706752405033	0.2568706752405154	-0.1734956768462466	-0.1745295318353907	0.001234487557600576	0.0005175645451121794	-0.003169681090694831	-0.04692080681503972	-0.02758888570869399	0.2655596741165325	-0.02812954122889911	0.1208762874495879	-0.2503848884482744	0.3408451657825396	0.3408451657825085	0.05053371069256232	5.895173089688816e-05	0.1007803434617761	0.004189627516965003	0.04927673301933594	-0.06667488775639931	-0.02025760424505664	-0.2524524963434177	0.2229773640596773	0.005561071359025763	0.03225356488886425	28.61682430280015	-9.541136436000762	3.483065824999325	-14.70030447368407	-638.7907694385974	-91.89466907347521	-23.27395136742441	-0.09276080668269991	-1.085997767042206	-0.6823659830956126	6.326191071203535	-0.6492815711005532	2.801332716858564	-5.687821019505153	8.142375259789212	8.142375259789439	1.216854236463929	-0.06004407657113957	2.441362331356317	0.135094057394851	-9.796408618897851e-08	8.882436349700341e-08	3.280738902880434e-07	8.33112115518298e-08	-2.883054353999361e-07	-2.263602284685777e-07	-2.555148746356304e-08
0.05	-0.03692740972937134	0.05518699994729566	0.9194738286261261	0.3169751375816559	-0.2965276121890169	-0.297791028972809	-0.3958865887582421	0.26067763317401	0.2606776331740463	-0.1729328723694461	-0.1745292540289652	0.002361803160376526	0.0005654105818843573	-0.003583791714769757	-0.05747521310279322	-0.03430958742701345	0.3266309022095794	-0.03455601570663776	0.1487231126249267	-0.3064907149084738	0.4201421881053509	0.420142188105313	0.06193514960031984	9.03102092833204e-06	0.1246012505046583	0.005401446681024089	0.04327222089290818	-0.06508173400731357	-0.01941539964367849	-0.2477242890294649	0.2164656314607238	0.008044429655641306	0.03755361677083696	26.60365829362821	-10.30082936747131	3.642630594245493	-14.25221446337237	-639.6182656004218	-92.69906044500475	-23.31413967035244	-0.01267190991950749	-1.026264470793442	-0.6668117304055879	5.942571903790817	-0.6321605667987531	2.75356041703659	-5.509026708769221	7.762735973523606	7.762735973522333	1.088033943026073	0.02445055268652815	2.340224176654758	0.117454425865489	-1.128878236035763e-07	4.335897577124389e-08	3.73286877011558e-07	9.315145400252922e-08	-3.500512711113071e-07	-2.689264306300792e-07	-3.442173401628756e-08
0.06	-0.03696480761485393	0.05456179260911388	0.9190971457234903	0.3205376329332157	-0.296904111804879	-0.2961683647335999	-0.3992215355812397	0.2652654353817785	0.2652654353817827	-0.1722588044585412	-0.1745290921053622	0.003724881690762697	0.0006260205262882705	-0.00387533112498651	-0.067473715836375	-0.04102586771350136	0.3855014593200229	-0.0406956974119053	0.1756580577668769	-0.3600790713484379	0.4970140206280227	0.4970140206279798	0.07278639751185388	3.577514680781898e-05	0.1479329289835722	0.006742409043247246	0.03726770876654679	-0.06348858025822943	-0.01857319504255392	-0.242996081715427	0.2099538988617891	0.01052778795226516	0.04285366865285009	24.65000070810369	-11.07068773316733	3.803526326092536	-13.96075849310413	-639.6022303653015	-93.4287926213224	-23.36065392720799	-0.06824656391172552	-0.9748170562073624	-0.6814816967293037	5.886056874682829	-0.5919230166063851	2.6189567101808	-5.184327015458491	7.657337299761213	7.657337299761808	1.106816037219108	-0.0447111094015552	2.343516618563191	0.1609226970277961	-1.276178087150598e-07	-3.088432950749908e-09	4.177146346542138e-07	1.027774980970522e-07	-4.112127074250038e-07	-3.110856030380454e-07	-4.331377630276741e-08
0.07000000000000001	-0.03700474777942565	0.05383933954579855	0.918653176330846	0.3246784311956534	-0.2973405031465113	-0.2942814741944283	-0.403079731722718	0.2706102834411944	0.2706102834411159	-0.1714787967102506	-0.1745289099796836	0.005318899691355034	0.000700785908825123	-0.004093631347744288	-0.07692734315917613	-0.04777685660767488	0.4423058167196536	-0.04652960215871724	0.2015602023546716	-0.4111601327956487	0.5715597053193012	0.5715597053192362	0.08312200639037823	6.802335307336154e-06	0.1707849448782093	0.008235874189116107	0.03114773333582664	-0.05985309228068502	-0.01774348391973692	-0.2386564647316827	0.2041281825629257	0.01105824769979593	0.04821428269433527	22.81809751931056	-11.02724840326752	3.850211717835627	-13.51040136128329	-639.8608165331095	-92.43713909928812	-23.41218687033803	0.004237164300940535	-0.9171818467779304	-0.6733173384961972	5.524757982518586	-0.5712382729262592	2.551802504983854	-5.009992087701516	7.293809935155143	7.293809935151278	0.9830047904297997	0.01900459964341545	2.243180386634353	0.1472926224706057	-1.387188755507233e-07	-6.343024751983681e-08	4.547245476493066e-07	1.064751069992102e-07	-4.540328913280031e-07	-3.504761371727501e-07	-5.302138715149907e-08
